<?xml version="1.0" encoding="UTF-8"?>
<svg version="1.1" xmlns="http://www.w3.org/2000/svg" width="256" height="256">
<path d="M0 0 C2.43173803 -0.0064395 4.86347532 -0.01316869 7.29521179 -0.02017212 C12.37610672 -0.03209928 17.45693388 -0.03585756 22.5378418 -0.03466797 C29.0098644 -0.03446484 35.48144766 -0.06178257 41.95336628 -0.09621239 C46.97149099 -0.11857723 51.98951147 -0.1225026 57.00768089 -0.12144852 C59.39201562 -0.12378946 61.77635388 -0.13252665 64.16063881 -0.14811325 C84.83496232 -0.27064135 104.05303634 0.91789433 119.81640625 15.890625 C130.0440617 27.28299566 130.46082012 42.77989775 130.41577148 57.28100586 C130.42148576 58.95624748 130.42845408 60.63148521 130.43656921 62.30671692 C130.45439824 66.82332099 130.45335179 71.3397297 130.44762683 75.85635829 C130.44452028 79.64090398 130.45064359 83.42541293 130.45666558 87.20995337 C130.4706753 96.14447637 130.46917898 105.07890368 130.45776367 114.01342773 C130.44628381 123.20096378 130.46036405 132.38820787 130.48716015 141.57570547 C130.50937839 149.49287868 130.51594083 157.40996065 130.51008373 165.3271628 C130.50672784 170.04302347 130.50903777 174.75869702 130.52633476 179.47453117 C130.54190008 183.91117282 130.53774312 188.34738468 130.51902962 192.78400993 C130.51537021 194.402404 130.51837393 196.02083061 130.52891541 197.63919449 C130.60587282 210.4414863 129.47752849 222.4799928 120.80859375 232.59375 C115.49278134 237.74777681 109.21122373 238.45349173 102.11810303 238.48310852 C100.93784042 238.49026382 99.75757782 238.49741913 98.54154968 238.50479126 C96.61204216 238.50882462 96.61204216 238.50882462 94.64355469 238.51293945 C93.26827322 238.51920946 91.89299342 238.52585674 90.51771545 238.53285217 C86.01052008 238.55382956 81.5033246 238.56424804 76.99609375 238.57421875 C75.44076775 238.57826855 73.88544192 238.58238554 72.33011627 238.58656883 C65.02213644 238.60560594 57.71416663 238.61984055 50.40616679 238.6281808 C41.98601286 238.63795059 33.56612198 238.66426942 25.14606071 238.70468169 C18.626975 238.73489077 12.10796452 238.74965417 5.58881021 238.75296181 C1.70011718 238.75530664 -2.18829433 238.76419281 -6.07691193 238.78942299 C-9.73780301 238.81279338 -13.39822899 238.81690141 -17.05917549 238.80666161 C-19.03149032 238.8059344 -21.003782 238.82496175 -22.97599792 238.84472656 C-30.23836027 238.8024045 -35.66468887 237.97781084 -41.98828125 234.3359375 C-43.06078125 233.7378125 -44.13328125 233.1396875 -45.23828125 232.5234375 C-50.71222502 228.16916405 -53.6654651 223.22478344 -54.98828125 216.3359375 C-55.32569375 212.10908826 -55.36163063 207.88729744 -55.40234375 203.6484375 C-55.42189117 202.33826157 -55.4414386 201.02808563 -55.46157837 199.6782074 C-55.51475924 196.00800744 -55.55418711 192.33777636 -55.58998108 188.66736984 C-55.61335295 186.32876316 -55.63970273 183.9902073 -55.66687012 181.65164185 C-55.81698616 168.54668146 -55.9101994 155.44150476 -55.98828125 142.3359375 C-55.99539627 141.15478111 -56.00251129 139.97362473 -56.00984192 138.75667572 C-56.11624093 120.79069023 -56.18456619 102.8248837 -56.22276103 84.85863936 C-56.23346158 80.12586116 -56.25144229 75.39314376 -56.27227783 70.66040039 C-56.30041565 64.20286554 -56.31182612 57.74542532 -56.31248093 51.28782845 C-56.31507232 48.8826188 -56.32276372 46.47740856 -56.33586502 44.0722332 C-56.35293776 40.75038614 -56.3511384 37.42905108 -56.34472656 34.10717773 C-56.35394449 33.14290359 -56.36316242 32.17862946 -56.37265968 31.18513489 C-56.31966305 22.56305537 -54.4070669 15.15311945 -48.98828125 8.3359375 C-48.32828125 8.3359375 -47.66828125 8.3359375 -46.98828125 8.3359375 C-46.98828125 7.6759375 -46.98828125 7.0159375 -46.98828125 6.3359375 C-32.49412552 -1.37929785 -15.93735218 0.009961 0 0 Z M89.01171875 18.3359375 C88.63304405 26.28810612 89.49031931 32.6684474 94.07421875 39.3359375 C96.15515251 41.48399816 97.09662818 42.2768994 100.0703125 42.46875 C100.85535156 42.46617188 101.64039063 42.46359375 102.44921875 42.4609375 C103.23167969 42.46351562 104.01414063 42.46609375 104.8203125 42.46875 C107.19067222 42.41976298 107.19067222 42.41976298 110.01171875 41.3359375 C108.66951537 32.04117906 102.38041341 24.98324233 95.125 19.48046875 C92.82605723 18.01845031 92.82605723 18.01845031 89.01171875 18.3359375 Z M-2.98828125 85.3359375 C-3.29869798 89.0609382 -3.29793851 90.88895854 -1.98828125 94.3359375 C1.48805816 98.21793543 5.34701312 101.54283216 9.32128906 104.90332031 C11.73380035 106.94789227 14.07902505 109.04883962 16.38671875 111.2109375 C17.11632812 111.86835937 17.8459375 112.52578125 18.59765625 113.203125 C20.01171875 115.3359375 20.01171875 115.3359375 19.89453125 118.328125 C16.66965438 129.31553736 6.35556466 139.01283128 -2.65234375 145.5703125 C-4.34487472 147.39587052 -4.34487472 147.39587052 -3.69921875 150.5390625 C-3.46460938 151.46203125 -3.23 152.385 -2.98828125 153.3359375 C5.51347987 149.07699668 5.51347987 149.07699668 13.01171875 143.3359375 C13.01171875 142.6759375 13.01171875 142.0159375 13.01171875 141.3359375 C13.88026489 140.949823 13.88026489 140.949823 14.76635742 140.5559082 C18.89916657 138.31043171 21.99718312 134.8037369 25.32421875 131.5234375 C26.07767578 130.81123047 26.83113281 130.09902344 27.60742188 129.36523438 C28.31447266 128.66849609 29.02152344 127.97175781 29.75 127.25390625 C30.40009033 126.62250732 31.05018066 125.9911084 31.7199707 125.34057617 C33.25018422 123.3924944 33.25018422 123.3924944 32.89501953 120.90869141 C29.63829969 111.42297728 22.40337365 104.03292719 15.41381836 97.10668945 C13.92925727 95.62856253 12.47363502 94.12529736 11.01757812 92.61914062 C10.06802626 91.66505162 9.11691051 90.71251591 8.1640625 89.76171875 C7.31835693 88.91005127 6.47265137 88.05838379 5.60131836 87.1809082 C2.48923199 84.9636897 0.75137028 84.94966481 -2.98828125 85.3359375 Z M67.82055664 164.42773438 C66.29180287 164.46908156 64.76307621 164.51144069 63.234375 164.5546875 C62.01735146 164.58798157 62.01735146 164.58798157 60.77574158 164.62194824 C58.20854172 164.69238296 55.64138079 164.76413888 53.07421875 164.8359375 C51.32357012 164.88420221 49.5729191 164.93238017 47.82226562 164.98046875 C43.55205499 165.0979551 39.28187875 165.21662561 35.01171875 165.3359375 C34.8293251 168.75769321 34.8293251 168.75769321 35.01171875 172.3359375 C41.53076722 177.92369333 50.98236877 176.51302781 59.01171875 176.3359375 C59.75260742 176.32336914 60.49349609 176.31080078 61.25683594 176.29785156 C63.55147688 176.25030932 65.84324219 176.17239989 68.13671875 176.0859375 C69.22001465 176.06490967 69.22001465 176.06490967 70.32519531 176.04345703 C73.75696586 175.88069491 75.69905382 175.57745111 78.44921875 173.453125 C80.25180032 171.01062698 80.85241762 169.36265897 81.01171875 166.3359375 C79.11971785 163.99423763 79.11971785 163.99423763 75.93530273 164.19726562 C73.22916766 164.292909 70.52731967 164.3705261 67.82055664 164.42773438 Z " fill="#000000" transform="translate(90.98828125,8.6640625)"/>
</svg>
