<?xml version="1.0" encoding="UTF-8"?>
<svg version="1.1" xmlns="http://www.w3.org/2000/svg" width="256" height="256">
<path d="M0 0 C1.05664352 -0.00219543 2.11328705 -0.00439087 3.20195007 -0.00665283 C37.11227869 0.44480215 70.64118632 7.30629485 95.2746582 32.20800781 C115.06597395 56.03836758 117.34542898 88.22555589 117.18969727 117.81323242 C117.18467746 119.53380404 117.18022155 121.25437737 117.17625809 122.97495174 C117.16684673 126.84083882 117.15480095 130.70670713 117.14137268 134.57258224 C117.11885249 141.53984785 117.11220586 148.50709856 117.10705566 155.47439575 C117.10502712 158.0747506 117.10298079 160.67510543 117.10091782 163.27546024 C117.10013544 164.2673074 117.10013544 164.2673074 117.09933726 165.27919187 C117.07571114 194.23774093 117.01449366 223.19623895 116.9443935 252.15470776 C116.93438674 256.29104508 116.92454043 260.42738276 116.91479492 264.5637207 C116.91188286 265.79789052 116.91188286 265.79789052 116.90891197 267.05699306 C116.87770018 280.46235493 116.86084559 293.86769939 116.84912023 307.27309085 C116.83668931 321.12956004 116.80917872 334.98594029 116.76770139 348.84235328 C116.74271486 357.34384706 116.72918614 365.8451934 116.73088488 374.34672444 C116.73091474 380.15870442 116.71620236 385.97053344 116.69015017 391.7824545 C116.67559221 395.12442364 116.66942574 398.46582525 116.67651176 401.80785751 C116.72360635 427.43747878 112.79982199 445.74515005 95.12231445 465.03222656 C94.64536133 465.60714844 94.1684082 466.18207031 93.67700195 466.77441406 C81.11281744 476.93940757 54.83086575 474.36280329 39.66137695 474.44628906 C37.41456015 474.46535222 35.16774923 474.4851191 32.92094421 474.50552368 C26.80882313 474.55806704 20.69668369 474.59777365 14.58444595 474.63392639 C10.73339261 474.6573111 6.88236973 474.68361665 3.03134155 474.71081543 C-15.3741725 474.83975421 -33.77974544 474.93391084 -52.18553925 475.01213074 C-56.17195362 475.02909384 -60.15836404 475.04685589 -64.1447742 475.06477964 C-85.83201264 475.16188724 -107.51916182 475.22866492 -129.20658278 475.26670635 C-134.92345394 475.2773847 -140.64027456 475.29534667 -146.3571167 475.31622314 C-153.36876859 475.34159137 -160.38034128 475.35579957 -167.39204067 475.35616553 C-170.99259156 475.35658952 -174.59296663 475.36169105 -178.19347572 475.37981033 C-182.12952983 475.39938445 -186.0653631 475.39508713 -190.00146484 475.38867188 C-191.70451814 475.40249877 -191.70451814 475.40249877 -193.44197655 475.416605 C-204.01855509 475.36166491 -213.68675125 473.20949033 -223.06518555 468.28222656 C-223.74299072 467.93224609 -224.4207959 467.58226562 -225.11914062 467.22167969 C-238.49631256 460.13842312 -245.18425426 451.44188402 -249.87768555 437.03222656 C-252.14300696 427.86703402 -252.21965477 418.69395281 -252.28295898 409.31396484 C-252.301211 407.60520072 -252.32016365 405.89644396 -252.33974457 404.18769455 C-252.39090223 399.45870434 -252.4288833 394.72968906 -252.46385288 390.00055456 C-252.48734226 386.94084336 -252.51425181 383.88118006 -252.54219818 380.8215065 C-253.04806592 325.08568424 -253.09915468 269.34591092 -253.11510468 213.60813522 C-253.1160314 210.43748728 -253.11697026 207.26683934 -253.11791992 204.09619141 C-253.1181448 203.30974948 -253.11836969 202.52330756 -253.11860138 201.71303406 C-253.12261134 188.74973591 -253.14033854 175.7864916 -253.16327944 162.82321452 C-253.1870072 149.30180374 -253.1994537 135.78042041 -253.20062137 122.2589885 C-253.20153028 114.74871699 -253.20709461 107.23851871 -253.22544098 99.72826767 C-253.24246355 92.7421234 -253.24408651 85.75612128 -253.23530197 78.76996231 C-253.23453317 76.2210477 -253.23885349 73.67212545 -253.24876022 71.12322998 C-253.3575965 41.38284967 -253.3575965 41.38284967 -245.87768555 27.40722656 C-245.36334961 26.38822266 -245.36334961 26.38822266 -244.83862305 25.34863281 C-241.60670129 19.09449414 -241.60670129 19.09449414 -238.87768555 17.03222656 C-238.21768555 17.03222656 -237.55768555 17.03222656 -236.87768555 17.03222656 C-236.87768555 16.37222656 -236.87768555 15.71222656 -236.87768555 15.03222656 C-223.10693022 4.61964234 -208.32322515 1.9759911 -191.42578125 1.7355957 C-190.29641081 1.71632711 -189.16704037 1.69705853 -188.00344658 1.67720604 C-184.24934689 1.61491702 -180.49518438 1.55957406 -176.7409668 1.50488281 C-174.7456215 1.47376985 -172.75027623 1.44265508 -170.75493342 1.41138345 C-140.41267679 0.93950908 -110.06803575 0.71778873 -79.72300446 0.51481688 C-72.19902986 0.46433087 -64.67508645 0.40971364 -57.15114057 0.35514534 C-50.61598415 0.3079066 -44.08081946 0.26183017 -37.5456543 0.21582031 C-36.86438406 0.21100356 -36.18311382 0.2061868 -35.48119903 0.20122409 C-9.59934564 0.01852136 -9.59934564 0.01852136 0 0 Z M33.12231445 36.03222656 C33.71460835 53.4538367 36.41828138 69.92070563 49.12231445 83.03222656 C51.60745028 83.84629154 51.60745028 83.84629154 54.30981445 83.84472656 C55.28305664 83.88984375 56.25629883 83.93496094 57.2590332 83.98144531 C58.20391602 83.99820313 59.14879883 84.01496094 60.12231445 84.03222656 C61.27666992 84.07283203 61.27666992 84.07283203 62.4543457 84.11425781 C68.37814595 84.23166647 74.23608353 83.64835541 80.12231445 83.03222656 C73.561411 63.75270022 62.50183861 46.17661974 44.12231445 36.03222656 C40.31098516 35.36072869 36.93503694 35.42429247 33.12231445 36.03222656 Z M-148.87768555 170.03222656 C-149.59828371 178.93616446 -149.59828371 178.93616446 -147.37768555 187.40722656 C-146.14018555 188.70660156 -146.14018555 188.70660156 -144.87768555 190.03222656 C-144.2950293 190.65226562 -143.71237305 191.27230469 -143.11206055 191.91113281 C-139.94466775 195.19699109 -136.63324465 198.24913021 -133.17456055 201.22363281 C-127.69964244 205.9897105 -122.67472495 211.18745611 -117.58862305 216.36035156 C-113.37599193 220.61641187 -109.10150248 224.68139786 -104.5065918 228.52441406 C-102.87768555 230.03222656 -102.87768555 230.03222656 -100.87768555 233.03222656 C-105.96237797 244.25060239 -111.78906361 253.74138793 -119.87768555 263.03222656 C-120.35753906 263.58507324 -120.83739258 264.13791992 -121.33178711 264.70751953 C-129.43323006 273.9442483 -138.35710299 282.20820475 -147.51049805 290.38378906 C-148.25041992 291.07214844 -148.9903418 291.76050781 -149.75268555 292.46972656 C-150.38948242 293.0459375 -151.0262793 293.62214844 -151.68237305 294.21582031 C-153.11111137 295.997534 -153.11111137 295.997534 -152.76049805 298.37988281 C-151.74253521 301.43827559 -150.39657052 304.19257205 -148.87768555 307.03222656 C-136.29880017 301.06903739 -125.88582011 294.25341295 -115.73706055 284.68066406 C-113.74728728 282.83767735 -111.77197464 281.09651354 -109.6784668 279.38378906 C-106.65722067 276.84712216 -104.3618041 274.08960324 -101.87768555 271.03222656 C-100.22359301 269.35307992 -98.55532379 267.68784895 -96.87768555 266.03222656 C-95.59704224 264.75158325 -95.59704224 264.75158325 -94.29052734 263.44506836 C-87.81958008 256.97412109 -81.34863281 250.50317383 -74.87768555 244.03222656 C-82.66782316 220.17185507 -103.14762065 202.59165974 -120.51293945 185.43334961 C-121.02543747 184.92518707 -121.53793549 184.41702454 -122.06596375 183.89346313 C-123.47453226 182.49712655 -124.88585842 181.10357335 -126.29736328 179.71020508 C-128.16597436 177.77087355 -129.88463946 175.85657267 -131.58569336 173.78125 C-133.7158154 171.22637418 -134.76810986 170.01642236 -137.87768555 169.03222656 C-140.43415938 168.75505632 -140.43415938 168.75505632 -143.06518555 168.84472656 C-143.94561523 168.85117188 -144.82604492 168.85761719 -145.7331543 168.86425781 C-147.85915867 168.79712192 -147.85915867 168.79712192 -148.87768555 170.03222656 Z M-6.18045044 328.07885742 C-10.5497835 328.12371077 -14.91875882 328.18663967 -19.2878418 328.25097656 C-20.87780105 328.27350141 -22.46776182 328.29591949 -24.057724 328.3182373 C-28.17898087 328.37636498 -32.30021597 328.43591182 -36.42144775 328.49578857 C-40.6522905 328.55699518 -44.8831529 328.61681221 -49.11401367 328.67675781 C-57.36859043 328.79391304 -65.62314463 328.91257253 -73.87768555 329.03222656 C-74.01305184 331.45077102 -74.11188834 333.8617244 -74.19018555 336.28222656 C-74.23208008 336.96414063 -74.27397461 337.64605469 -74.31713867 338.34863281 C-74.42515693 340.64507757 -74.42515693 340.64507757 -73.87768555 344.03222656 C-66.3375693 351.80199102 -56.01257927 351.77821638 -45.87768555 352.03222656 C-38.66695619 352.07119785 -31.45877205 351.9069646 -24.25048828 351.73535156 C-20.92256875 351.6568108 -17.59455715 351.58988845 -14.26635742 351.52441406 C-12.12767074 351.47821945 -9.98899813 351.43136788 -7.8503418 351.38378906 C-6.86687271 351.36393951 -5.88340363 351.34408997 -4.87013245 351.32363892 C4.57505754 351.66122155 4.57505754 351.66122155 12.94848633 348.54174805 C13.32553711 347.91856689 13.70258789 347.29538574 14.09106445 346.65332031 C14.51645508 345.97978516 14.9418457 345.30625 15.38012695 344.61230469 C15.79004883 343.90525391 16.1999707 343.19820313 16.62231445 342.46972656 C17.28360352 341.40334961 17.28360352 341.40334961 17.95825195 340.31542969 C19.03670054 338.56881186 20.08283949 336.80231611 21.12231445 335.03222656 C19.31818802 331.76761683 18.28836752 330.14292861 15.12231445 328.03222656 C12.54963669 327.87860422 10.09165054 327.83659281 7.52294922 327.89355469 C6.76862641 327.90221809 6.01430361 327.9108815 5.23712254 327.91980743 C3.65157919 327.93910988 2.06608464 327.96288184 0.48067093 327.99087524 C-1.73971753 328.02980744 -3.95983657 328.05694759 -6.18045044 328.07885742 Z " fill="#000000" transform="translate(324.877685546875,17.9677734375)"/>
</svg>
