<?xml version="1.0" encoding="UTF-8"?>
<svg version="1.1" xmlns="http://www.w3.org/2000/svg" width="96" height="96">
<path d="M0 0 C0.93494797 -0.01283524 1.86989594 -0.02567047 2.83317566 -0.03889465 C4.34721733 -0.04997505 4.34721733 -0.04997505 5.8918457 -0.0612793 C7.45513359 -0.07338692 7.45513359 -0.07338692 9.05000305 -0.08573914 C11.25825337 -0.09957559 13.46652503 -0.1102997 15.67480469 -0.11816406 C19.03728305 -0.13534302 22.39876949 -0.17923013 25.76098633 -0.22338867 C27.90876557 -0.2335189 30.05655316 -0.24203397 32.2043457 -0.2487793 C33.70320564 -0.27504143 33.70320564 -0.27504143 35.23234558 -0.30183411 C42.35233362 -0.27992413 47.66319858 0.67942645 52.95889282 5.66259766 C57.99499056 12.11122278 57.08455221 20.33464447 57.0090332 28.0949707 C57.00986303 29.64097765 57.01232671 31.1869845 57.01634216 32.73298645 C57.01918932 35.95995905 57.00460126 39.18623336 56.97705078 42.41308594 C56.94288267 46.54253146 56.94902444 50.67073654 56.96771336 54.80024242 C56.9782933 57.98739415 56.96933814 61.17425843 56.95432854 64.36138344 C56.94915929 65.88396666 56.94961325 67.40658004 56.95587349 68.92915916 C56.96134167 71.05694349 56.94090725 73.18296383 56.91357422 75.31054688 C56.90737564 76.51885666 56.90117706 77.72716644 56.89479065 78.97209167 C56.27918331 82.80559752 55.11710225 84.46647067 52.38012695 87.17700195 C49.36543248 88.18190011 47.314745 88.3151732 44.16186523 88.33813477 C43.09710968 88.34774231 42.03235413 88.35734985 40.93533325 88.36724854 C39.7853183 88.37149841 38.63530334 88.37574829 37.45043945 88.38012695 C36.26795624 88.38582703 35.08547302 88.3915271 33.86715698 88.3973999 C31.36383968 88.4068516 28.86050992 88.41338455 26.35717773 88.41723633 C22.52736734 88.42694557 18.69809269 88.45796975 14.8684082 88.48950195 C12.43742181 88.49603164 10.00643158 88.50128225 7.57543945 88.50512695 C6.42947296 88.51747375 5.28350647 88.52982056 4.10281372 88.5425415 C3.03175385 88.53954041 1.96069397 88.53653931 0.85717773 88.53344727 C-0.08197479 88.5370929 -1.02112732 88.54073853 -1.98873901 88.54449463 C-5.18053515 88.09869381 -7.02758908 87.06807759 -9.61987305 85.17700195 C-12.00001348 81.6067913 -11.91579921 79.06120687 -11.91040039 74.93920898 C-11.91711761 74.20553101 -11.92383484 73.47185303 -11.93075562 72.71594238 C-11.9497642 70.28883097 -11.95366129 67.86199569 -11.95581055 65.43481445 C-11.96223677 63.74714036 -11.968965 62.05946739 -11.97598267 60.37179565 C-11.98796277 56.83271706 -11.99166277 53.29373612 -11.99047852 49.75463867 C-11.99027535 45.22274413 -12.01757171 40.69147683 -12.05202293 36.15973091 C-12.07427689 32.67325981 -12.07831652 29.18693998 -12.07725906 25.70040512 C-12.07961752 24.02986363 -12.08845484 22.35931812 -12.1039238 20.68884659 C-12.12355307 18.34998107 -12.1177588 16.01247203 -12.10571289 13.67358398 C-12.1169519 12.98561737 -12.12819092 12.29765076 -12.13977051 11.58883667 C-12.09430855 8.10960507 -11.65734474 6.23609152 -9.77700806 3.27096558 C-6.67487601 0.25967902 -4.14574744 0.04965378 0 0 Z M41.38012695 6.17700195 C41.70972911 11.19235248 41.70972911 11.19235248 44.38012695 15.17700195 C47.46360521 15.34381304 47.46360521 15.34381304 50.38012695 15.17700195 C49.03378238 10.77078335 47.18638322 8.74622493 43.38012695 6.17700195 C42.72012695 6.17700195 42.06012695 6.17700195 41.38012695 6.17700195 Z M7.38012695 31.17700195 C7.05184413 34.29962713 7.05184413 34.29962713 9.34887695 36.4387207 C10.18418945 37.23922852 11.01950195 38.03973633 11.88012695 38.86450195 C12.71543945 39.67274414 13.55075195 40.48098633 14.41137695 41.3137207 C15.06106445 41.92860352 15.71075195 42.54348633 16.38012695 43.17700195 C14.90291273 46.62901834 12.94218695 48.82662132 10.25512695 51.42700195 C9.53067383 52.1334082 8.8062207 52.83981445 8.05981445 53.56762695 C7.50551758 54.0987207 6.9512207 54.62981445 6.38012695 55.17700195 C6.71012695 55.83700195 7.04012695 56.49700195 7.38012695 57.17700195 C11.28298462 55.59032617 13.71533677 53.04349714 16.63012695 50.05200195 C17.5221582 49.14192383 18.41418945 48.2318457 19.33325195 47.29418945 C20.0087207 46.59551758 20.68418945 45.8968457 21.38012695 45.17700195 C19.79451057 41.32107122 17.31502741 38.84483904 14.38012695 35.92700195 C13.49325195 35.0349707 12.60637695 34.14293945 11.69262695 33.22387695 C9.64523592 30.95607122 9.64523592 30.95607122 7.38012695 31.17700195 Z M21.38012695 61.17700195 C21.38012695 62.16700195 21.38012695 63.15700195 21.38012695 64.17700195 C23.36797594 66.16485094 27.10713102 65.40697982 29.81762695 65.42700195 C30.85886719 65.45793945 30.85886719 65.45793945 31.92114258 65.48950195 C34.18011742 65.54150653 34.18011742 65.54150653 37.38012695 65.17700195 C38.04012695 64.18700195 38.70012695 63.19700195 39.38012695 62.17700195 C38.16583707 60.73311624 38.16583707 60.73311624 34.5637207 61.0793457 C32.98166013 61.08602106 31.39961537 61.0979832 29.81762695 61.11450195 C29.01131836 61.11901367 28.20500977 61.12352539 27.37426758 61.12817383 C25.37618939 61.13999678 23.37814912 61.15793281 21.38012695 61.17700195 Z " fill="#000000" transform="translate(25.619873046875,3.822998046875)"/>
</svg>
